<svg width="318" height="433" viewBox="0 0 318 433" fill="none" xmlns="http://www.w3.org/2000/svg">
<path fill-rule="evenodd" clip-rule="evenodd" d="M272.687 45.8126C243.994 17.1196 205.078 1 164.5 1V39.25C194.934 39.25 224.121 51.3397 245.64 72.8595C267.16 94.3792 279.25 123.566 279.25 154C279.25 184.433 267.16 213.621 245.641 235.14C224.121 256.66 194.934 268.75 164.5 268.75L164.5 307C164.5 307 164.5 307 164.5 307V431C189.098 411.811 280.365 307.478 310.372 200.157C315.054 185.361 317.5 169.807 317.5 154C317.5 113.422 301.38 74.5057 272.687 45.8126Z" fill="#14842D"/>
<path d="M164.5 1V0.5H164V1H164.5ZM272.687 45.8126L272.334 46.1662L272.687 45.8126ZM164.5 39.25H164V39.75H164.5V39.25ZM245.64 72.8595L245.994 72.5059L245.64 72.8595ZM279.25 154H279.75H279.25ZM245.641 235.14L245.994 235.494L245.641 235.14ZM164.5 268.75L164.5 268.25H164L164 268.75H164.5ZM164.5 307L164.803 307.398L165 307.248L165 307H164.5ZM164.5 307L164.197 306.602L164 306.753V307H164.5ZM164.5 431H164V432.024L164.808 431.394L164.5 431ZM310.372 200.157L309.895 200.007L309.892 200.015L309.89 200.023L310.372 200.157ZM317.5 154H318H317.5ZM164.5 1.5C204.945 1.5 243.734 17.5669 272.334 46.1662L273.041 45.4591C244.254 16.6723 205.211 0.5 164.5 0.5V1.5ZM165 39.25V1H164V39.25H165ZM245.994 72.5059C224.38 50.8924 195.066 38.75 164.5 38.75V39.75C194.801 39.75 223.861 51.787 245.287 73.213L245.994 72.5059ZM279.75 154C279.75 123.434 267.608 94.1195 245.994 72.5059L245.287 73.213C266.713 94.639 278.75 123.699 278.75 154H279.75ZM245.994 235.494C267.608 213.88 279.75 184.566 279.75 154H278.75C278.75 184.301 266.713 213.361 245.287 234.787L245.994 235.494ZM164.5 269.25C195.066 269.25 224.381 257.108 245.994 235.494L245.287 234.787C223.861 256.213 194.801 268.25 164.5 268.25L164.5 269.25ZM165 307L165 268.75H164L164 307H165ZM164.197 306.602C164.213 306.59 164.23 306.579 164.248 306.568C164.266 306.558 164.285 306.548 164.303 306.54C164.341 306.524 164.376 306.515 164.407 306.509C164.436 306.503 164.461 306.501 164.476 306.501C164.484 306.5 164.49 306.5 164.494 306.5C164.498 306.5 164.501 306.5 164.5 306.5C164.5 306.5 164.5 306.5 164.5 306.5C164.5 306.5 164.5 306.5 164.5 306.5C164.5 306.5 164.5 306.5 164.5 306.5C164.5 306.5 164.5 306.5 164.5 306.5C164.5 306.5 164.499 306.5 164.499 306.5C164.498 306.5 164.496 306.5 164.494 306.5C164.49 306.5 164.484 306.5 164.476 306.501C164.461 306.501 164.436 306.503 164.406 306.509C164.376 306.515 164.341 306.524 164.303 306.541C164.284 306.548 164.266 306.558 164.248 306.568C164.23 306.579 164.213 306.59 164.197 306.602L164.803 307.398C164.787 307.41 164.77 307.421 164.752 307.432C164.734 307.442 164.716 307.452 164.697 307.46C164.66 307.476 164.624 307.485 164.594 307.491C164.564 307.497 164.539 307.499 164.524 307.499C164.516 307.5 164.51 307.5 164.506 307.5C164.503 307.5 164.5 307.5 164.5 307.5C164.5 307.5 164.5 307.5 164.5 307.5C164.5 307.5 164.5 307.5 164.5 307.5C164.5 307.5 164.5 307.5 164.5 307.5C164.5 307.5 164.5 307.5 164.5 307.5C164.501 307.5 164.501 307.5 164.502 307.5C164.503 307.5 164.504 307.5 164.506 307.5C164.51 307.5 164.516 307.5 164.524 307.499C164.539 307.499 164.564 307.497 164.594 307.491C164.624 307.485 164.66 307.476 164.697 307.46C164.716 307.452 164.734 307.442 164.752 307.432C164.77 307.421 164.787 307.41 164.803 307.398L164.197 306.602ZM164 307V431H165V307H164ZM164.808 431.394C177.163 421.755 206.163 390.829 235.816 348.917C265.475 306.996 295.828 254.029 310.853 200.292L309.89 200.023C294.908 253.606 264.625 306.466 235 348.339C205.368 390.221 176.435 421.055 164.192 430.606L164.808 431.394ZM317 154C317 169.755 314.562 185.259 309.895 200.007L310.848 200.308C315.546 185.464 318 169.858 318 154H317ZM272.334 46.1662C300.933 74.7654 317 113.554 317 154H318C318 113.289 301.828 74.2459 273.041 45.4591L272.334 46.1662Z" fill="#14842D"/>
<path fill-rule="evenodd" clip-rule="evenodd" d="M45.3127 45.8126C74.0058 17.1196 112.922 1 153.5 1V39.25C123.066 39.25 93.8793 51.3397 72.3595 72.8595C50.8397 94.3792 38.75 123.566 38.75 154C38.75 184.433 50.8396 213.621 72.3594 235.14C93.8792 256.66 123.066 268.75 153.5 268.75L153.5 307C153.5 307 153.5 307 153.5 307V431C128.902 411.811 37.6349 307.478 7.62831 200.157C2.94597 185.361 0.5 169.807 0.5 154C0.500031 113.422 16.6196 74.5057 45.3127 45.8126Z" fill="#A3DF26"/>
<path d="M153.5 1V0.5H154V1H153.5ZM45.3127 45.8126L45.6663 46.1662L45.3127 45.8126ZM153.5 39.25H154V39.75H153.5V39.25ZM72.3595 72.8595L72.006 72.5059L72.3595 72.8595ZM38.75 154H38.25H38.75ZM72.3594 235.14L72.0058 235.494L72.3594 235.14ZM153.5 268.75L153.5 268.25H154L154 268.75H153.5ZM153.5 307L153.197 307.398L153 307.248L153 307H153.5ZM153.5 307L153.803 306.602L154 306.753V307H153.5ZM153.5 431H154V432.024L153.192 431.394L153.5 431ZM7.62831 200.157L8.10501 200.007L8.10756 200.015L8.10985 200.023L7.62831 200.157ZM0.5 154H0H0.5ZM153.5 1.5C113.055 1.5 74.2656 17.5669 45.6663 46.1662L44.9592 45.4591C73.746 16.6723 112.789 0.5 153.5 0.5V1.5ZM153 39.25V1H154V39.25H153ZM72.006 72.5059C93.6195 50.8924 122.934 38.75 153.5 38.75V39.75C123.199 39.75 94.1391 51.787 72.7131 73.213L72.006 72.5059ZM38.25 154C38.25 123.434 50.3924 94.1195 72.006 72.5059L72.7131 73.213C51.287 94.639 39.25 123.699 39.25 154H38.25ZM72.0058 235.494C50.3923 213.88 38.25 184.566 38.25 154H39.25C39.25 184.301 51.287 213.361 72.713 234.787L72.0058 235.494ZM153.5 269.25C122.934 269.25 93.6194 257.108 72.0058 235.494L72.713 234.787C94.139 256.213 123.199 268.25 153.5 268.25L153.5 269.25ZM153 307L153 268.75H154L154 307H153ZM153.803 306.602C153.787 306.59 153.77 306.579 153.752 306.568C153.734 306.558 153.715 306.548 153.697 306.54C153.659 306.524 153.624 306.515 153.593 306.509C153.564 306.503 153.539 306.501 153.524 306.501C153.516 306.5 153.51 306.5 153.506 306.5C153.502 306.5 153.499 306.5 153.5 306.5C153.5 306.5 153.5 306.5 153.5 306.5C153.5 306.5 153.5 306.5 153.5 306.5C153.5 306.5 153.5 306.5 153.5 306.5C153.5 306.5 153.5 306.5 153.5 306.5C153.5 306.5 153.501 306.5 153.501 306.5C153.502 306.5 153.504 306.5 153.506 306.5C153.51 306.5 153.516 306.5 153.524 306.501C153.539 306.501 153.564 306.503 153.594 306.509C153.624 306.515 153.659 306.524 153.697 306.541C153.716 306.548 153.734 306.558 153.752 306.568C153.77 306.579 153.787 306.59 153.803 306.602L153.197 307.398C153.213 307.41 153.23 307.421 153.248 307.432C153.266 307.442 153.284 307.452 153.303 307.46C153.34 307.476 153.376 307.485 153.406 307.491C153.436 307.497 153.461 307.499 153.476 307.499C153.484 307.5 153.49 307.5 153.494 307.5C153.497 307.5 153.5 307.5 153.5 307.5C153.5 307.5 153.5 307.5 153.5 307.5C153.5 307.5 153.5 307.5 153.5 307.5C153.5 307.5 153.5 307.5 153.5 307.5C153.5 307.5 153.5 307.5 153.5 307.5C153.499 307.5 153.499 307.5 153.498 307.5C153.497 307.5 153.496 307.5 153.494 307.5C153.49 307.5 153.484 307.5 153.476 307.499C153.461 307.499 153.436 307.497 153.406 307.491C153.376 307.485 153.34 307.476 153.303 307.46C153.284 307.452 153.266 307.442 153.248 307.432C153.23 307.421 153.213 307.41 153.197 307.398L153.803 306.602ZM154 307V431H153V307H154ZM153.192 431.394C140.837 421.755 111.837 390.829 82.1841 348.917C52.5249 306.996 22.1716 254.029 7.14677 200.292L8.10985 200.023C23.0916 253.606 53.375 306.466 83.0004 348.339C112.632 390.221 141.565 421.055 153.808 430.606L153.192 431.394ZM1 154C1 169.755 3.43797 185.259 8.10501 200.007L7.15161 200.308C2.45396 185.464 0 169.858 0 154H1ZM45.6663 46.1662C17.067 74.7654 1.00003 113.554 1 154H0C3.05176e-05 113.289 16.1723 74.2459 44.9592 45.4591L45.6663 46.1662Z" fill="#A3DF26"/>
<path fill-rule="evenodd" clip-rule="evenodd" d="M164.5 131.5C184.837 104.65 200.483 95.361 235.5 88.5C261.453 156.045 226.124 213.498 164.5 220.5V197L164.929 196.458C180.017 177.371 192.686 161.345 213 141C210.596 137.478 208.784 136.265 205 135C188.1 149.956 179.195 159.923 164.5 181V131.5Z" fill="#14842D"/>
<path d="M235.5 88.5L235.967 88.3207L235.816 87.9286L235.404 88.0093L235.5 88.5ZM164.5 131.5L164.101 131.198L164 131.332V131.5H164.5ZM164.5 220.5H164V221.06L164.556 220.997L164.5 220.5ZM164.5 197L164.108 196.69L164 196.826V197H164.5ZM164.929 196.458L165.321 196.768H165.321L164.929 196.458ZM213 141L213.354 141.353L213.646 141.06L213.413 140.718L213 141ZM205 135L205.159 134.526L204.885 134.434L204.669 134.626L205 135ZM164.5 181H164V182.591L164.91 181.286L164.5 181ZM235.404 88.0093C217.871 91.4446 205.14 95.4964 194.237 102.076C183.331 108.658 174.29 117.747 164.101 131.198L164.899 131.802C175.047 118.404 183.998 109.423 194.754 102.932C205.512 96.4398 218.112 92.4164 235.596 88.9907L235.404 88.0093ZM164.556 220.997C195.516 217.479 219.902 201.28 233.277 177.448C246.652 153.618 248.988 122.21 235.967 88.3207L235.033 88.6793C247.965 122.335 245.613 153.426 232.405 176.959C219.198 200.49 195.108 216.519 164.444 220.003L164.556 220.997ZM164 197V220.5H165V197H164ZM164.892 197.31L165.321 196.768L164.536 196.148L164.108 196.69L164.892 197.31ZM165.321 196.768C180.409 177.682 193.062 161.676 213.354 141.353L212.646 140.647C192.31 161.013 179.626 177.06 164.536 196.148L165.321 196.768ZM213.413 140.718C212.194 138.932 211.102 137.698 209.814 136.751C208.526 135.804 207.071 135.165 205.159 134.526L204.841 135.474C206.713 136.1 208.056 136.7 209.221 137.557C210.386 138.413 211.403 139.547 212.587 141.282L213.413 140.718ZM204.669 134.626C187.737 149.61 178.806 159.607 164.09 180.714L164.91 181.286C179.584 160.239 188.463 150.303 205.331 135.374L204.669 134.626ZM164 131.5V181H165V131.5H164Z" fill="#14842D"/>
<path fill-rule="evenodd" clip-rule="evenodd" d="M153.5 131.5C133.163 104.65 117.517 95.361 82.5 88.5C56.5471 156.045 91.8762 213.498 153.5 220.5V197L153.071 196.458C137.983 177.371 125.314 161.345 105 141C107.404 137.478 109.216 136.265 113 135C129.9 149.956 138.805 159.923 153.5 181V131.5Z" fill="#A3DF26"/>
<path d="M82.5 88.5L82.0333 88.3207L82.1839 87.9286L82.5961 88.0093L82.5 88.5ZM153.5 131.5L153.899 131.198L154 131.332V131.5H153.5ZM153.5 220.5H154V221.06L153.444 220.997L153.5 220.5ZM153.5 197L153.892 196.69L154 196.826V197H153.5ZM153.071 196.458L152.679 196.768H152.679L153.071 196.458ZM105 141L104.646 141.353L104.354 141.06L104.587 140.718L105 141ZM113 135L112.841 134.526L113.115 134.434L113.331 134.626L113 135ZM153.5 181H154V182.591L153.09 181.286L153.5 181ZM82.5961 88.0093C100.129 91.4446 112.86 95.4964 123.763 102.076C134.669 108.658 143.71 117.747 153.899 131.198L153.101 131.802C142.953 118.404 134.002 109.423 123.246 102.932C112.488 96.4398 99.8877 92.4164 82.4039 88.9907L82.5961 88.0093ZM153.444 220.997C122.484 217.479 98.0982 201.28 84.7227 177.448C71.3481 153.618 69.0118 122.21 82.0333 88.3207L82.9667 88.6793C70.0353 122.335 72.3871 153.426 85.5948 176.959C98.8016 200.49 122.892 216.519 153.556 220.003L153.444 220.997ZM154 197V220.5H153V197H154ZM153.108 197.31L152.679 196.768L153.464 196.148L153.892 196.69L153.108 197.31ZM152.679 196.768C137.591 177.682 124.938 161.676 104.646 141.353L105.354 140.647C125.69 161.013 138.374 177.06 153.464 196.148L152.679 196.768ZM104.587 140.718C105.806 138.932 106.898 137.698 108.186 136.751C109.474 135.804 110.929 135.165 112.841 134.526L113.159 135.474C111.287 136.1 109.944 136.7 108.779 137.557C107.614 138.413 106.597 139.547 105.413 141.282L104.587 140.718ZM113.331 134.626C130.263 149.61 139.194 159.607 153.91 180.714L153.09 181.286C138.416 160.239 129.537 150.303 112.669 135.374L113.331 134.626ZM154 131.5V181H153V131.5H154Z" fill="#A3DF26"/>
</svg>
